<?xml version="1.0" encoding="utf-8"?>
<!-- Generator: Adobe Illustrator 22.1.0, SVG Export Plug-In . SVG Version: 6.00 Build 0)  -->
<svg version="1.1" id="Layer_1" xmlns="http://www.w3.org/2000/svg" xmlns:xlink="http://www.w3.org/1999/xlink" x="0px" y="0px"
	 viewBox="0 0 122.6 128.1" style="enable-background:new 0 0 122.6 128.1;" xml:space="preserve">
<style type="text/css">
	.st0{fill:#FDBB30;}
</style>
<path class="st0" d="M56.3,63.5c7.2,0,14.2,0,21.3,0c0-4.1,0-8.1,0-12.1c0.7-0.2,1.3-0.4,1.9-0.6c3.5-1,6.7-2.6,9.3-5
	c1.5-1.4,3.3-2,5.2-2.2c9.1-1,20.3,3.9,21.8,17.2c2.3,20-12.9,34.4-27.2,37.2c-2.4,0.5-2.4,0.5-2.4,2.9c0,2.9,0,5.8,0,8.7
	c-0.1,5.5-4.2,10-9.7,10.2c-6.1,0.2-12.1,0.1-18.2,0.1c-9.5,0-19,0-28.5,0c-3.9,0-7.3-1.3-9.4-4.7c-0.9-1.5-1.7-3.4-1.7-5.1
	c-0.1-20-0.1-40.1-0.1-60.1c0-0.1,0-0.3,0.1-0.5c2.6,1,5.2,1.9,7.9,2.9c0,2.1,0,4.4,0,6.7c0,15.7,0.1,31.4-0.1,47.1
	c0,3.5,3.2,5.8,6.1,4.5c1.8-0.9,2.6-2.3,2.6-4.3c0-6.9,0-13.9,0-20.8c0-6.8,0-13.7,0-20.5c0-0.5,0-0.9,0-1.5c2.8,0,5.4,0,8.2,0
	c0,0.6,0,1.2,0,1.8c0,4.3,0,8.6,0,12.9c0,4,2.7,6.9,6.4,6.9s6.5-2.9,6.5-7C56.3,73.4,56.3,68.6,56.3,63.5z M86.3,87.2
	c0.4-0.1,0.7-0.1,1-0.2c7.8-2.2,13.4-7.1,16.3-14.7c1.4-3.5,1.9-7.2,1.2-10.9c-0.4-2.4-1.3-4.4-3.6-5.6c-4.2-2.1-9.7-0.6-12.3,3.3
	c-1.7,2.5-2.5,5.3-2.6,8.3c-0.1,6.3-0.1,12.6-0.1,18.9C86.2,86.7,86.3,86.9,86.3,87.2z"/>
<path class="st0" d="M72.3,46.4c-3.4,0-6.6-0.8-9.5-2.4c-0.7-0.4-1.3-0.5-2.1-0.1c-5.8,2.8-11.8,3.1-18,1.4
	c-0.7-0.2-1.7-0.1-2.4,0.2c-7,2.9-13.8,2.5-20.1-1.6c-9.9-6.5-10-20.1-0.3-26.8c4.1-2.8,8.6-3.9,13.5-3.6c0.6,0,1.3-0.2,1.8-0.5
	c8.4-6.1,19.5-6.5,28.2-0.9c0.5,0.3,1.4,0.4,1.9,0.2c7.8-2.5,14.8-1.3,20.8,4.3c9.3,8.8,6,23.7-6.1,28.4c-2.4,0.9-5.1,1.3-7.6,1.9
	C72.4,46.7,72.3,46.6,72.3,46.4z M72.5,39c3,0,5.8-1,8.1-3c4.5-3.9,4.7-10.1,0.4-14.2c-3.8-3.7-9.9-4.4-14.9-1.8
	c-2.1,1.1-3.3,1-5.1-0.5C54.4,14,44.8,14.1,38.4,20c-1.2,1.1-2.5,1.5-4.1,1.1c-3.7-0.8-7.1-0.2-10.2,2c-5.5,3.8-5.5,10.8,0.1,14.6
	c4.6,3.1,9.5,3.1,14.3,0.2c1.6-0.9,2.9-1,4.6-0.4c5.6,2.3,11.1,1.9,16.3-1.4c2-1.3,3.2-1.2,5.1,0.2C66.9,38.1,69.5,39,72.5,39z"/>
</svg>
